HIERARCHY
ROOT SpineBase
{
  OFFSET 0.000000 0.000000 0.000000
  CHANNELS 6 Xposition Yposition Zposition Zrotation Xrotation Yrotation
  JOINT SpineMid
  {
    OFFSET -0.000000 28.843773 0.000000
    CHANNELS 3 Zrotation Xrotation Yrotation
    JOINT SpineShoulder
    {
      OFFSET -0.132152 21.431525 -0.664430
      CHANNELS 3 Zrotation Xrotation Yrotation
      JOINT Neck
      {
        OFFSET -0.076861 7.088087 -0.515717
        CHANNELS 3 Zrotation Xrotation Yrotation
        JOINT Head
        {
          OFFSET -2.680831 12.744898 -0.252741
          CHANNELS 3 Zrotation Xrotation Yrotation
          End Site
          {
            OFFSET 0 0 0
          }
        }
      }
      JOINT ShoulderLeft
      {
        OFFSET -14.127878 -3.896681 6.707882
        CHANNELS 3 Zrotation Xrotation Yrotation
        JOINT ElbowLeft
        {
          OFFSET -1.085345 -25.960208 3.032748
          CHANNELS 3 Zrotation Xrotation Yrotation
          JOINT WristLeft
          {
            OFFSET -0.361374 -21.272762 -1.211825
            CHANNELS 3 Zrotation Xrotation Yrotation
            JOINT HandLeft
            {
              OFFSET 0.158037 -5.514423 -1.119359
              CHANNELS 3 Zrotation Xrotation Yrotation
              JOINT HandTipLeft
              {
                OFFSET -0.046129 -6.228730 1.848064
                CHANNELS 3 Zrotation Xrotation Yrotation
                End Site
                {
                  OFFSET 0 0 0
                }
              }
              JOINT ThumbLeft
              {
                OFFSET -1.410328 -1.718260 -0.876181
                CHANNELS 3 Zrotation Xrotation Yrotation
                End Site
                {
                  OFFSET 0 0 0
                }
              }
            }
          }
        }
      }
      JOINT ShoulderRight
      {
        OFFSET 10.991036 -3.535357 -10.470314
        CHANNELS 3 Zrotation Xrotation Yrotation
        JOINT ElbowRight
        {
          OFFSET 6.880256 -22.655255 -1.627272
          CHANNELS 3 Zrotation Xrotation Yrotation
          JOINT WristRight
          {
            OFFSET -1.322619 -18.924802 -5.652823
            CHANNELS 3 Zrotation Xrotation Yrotation
            JOINT HandRight
            {
              OFFSET -1.356142 -6.912669 -0.231884
              CHANNELS 3 Zrotation Xrotation Yrotation
              JOINT HandTipRight
              {
                OFFSET -0.168794 -6.022406 -0.337190
                CHANNELS 3 Zrotation Xrotation Yrotation
                End Site
                {
                  OFFSET 0 0 0
                }
              }
              JOINT ThumbRight
              {
                OFFSET -2.680013 -0.639611 -1.464338
                CHANNELS 3 Zrotation Xrotation Yrotation
                End Site
                {
                  OFFSET 0 0 0
                }
              }
            }
          }
        }
      }
    }
  }
  JOINT HipLeft
  {
    OFFSET -5.671486 0.403118 -0.175494
    CHANNELS 3 Zrotation Xrotation Yrotation
    JOINT KneeLeft
    {
      OFFSET 4.572810 -28.177839 7.832746
      CHANNELS 3 Zrotation Xrotation Yrotation
      JOINT AnkleLeft
      {
        OFFSET 6.518540 -30.236693 6.852660
        CHANNELS 3 Zrotation Xrotation Yrotation
        JOINT FootLeft
        {
          OFFSET -4.812483 -2.610383 -10.807239
          CHANNELS 3 Zrotation Xrotation Yrotation
          End Site
          {
            OFFSET 0 0 0
          }
        }
      }
    }
  }
  JOINT HipRight
  {
    OFFSET 5.130701 1.137723 -6.260945
    CHANNELS 3 Zrotation Xrotation Yrotation
    JOINT KneeRight
    {
      OFFSET 9.639943 -30.040096 4.068521
      CHANNELS 3 Zrotation Xrotation Yrotation
      JOINT AnkleRight
      {
        OFFSET 5.902651 -33.713764 6.798959
        CHANNELS 3 Zrotation Xrotation Yrotation
        JOINT FootRight
        {
          OFFSET -5.285498 -3.245672 -6.305690
          CHANNELS 3 Zrotation Xrotation Yrotation
          End Site
          {
            OFFSET 0 0 0
          }
        }
      }
    }
  }
}
MOTION
Frames: 14
Frame Time: 0.033333
24.513895 70.707485 341.947179 0.000000 0.000000 29.394889 -0.000000 0.000000 -29.394889 -0.000000 0.000000 0.000000 -0.000000 0.000000 0.000000 0.000000 0.000000 0.000000 -0.000000 0.000000 0.000000 -0.000000 0.000000 0.000000 -0.000000 0.000000 0.000000 -0.000000 0.000000 0.000000 0.000000 0.000000 0.000000 0.000000 0.000000 0.000000 -0.000000 0.000000 0.000000 -0.000000 0.000000 0.000000 -0.000000 0.000000 0.000000 -0.000000 0.000000 0.000000 0.000000 0.000000 0.000000 0.000000 0.000000 0.000000 -0.000000 0.000000 -29.394889 -0.000000 0.000000 0.000000 -0.000000 0.000000 0.000000 0.000000 0.000000 0.000000 -0.000000 0.000000 -29.394889 -0.000000 0.000000 0.000000 -0.000000 0.000000 0.000000 0.000000 0.000000 0.000000
24.517611 70.648885 341.925230 0.033051 0.088849 29.131265 -0.072123 -0.061521 -29.131330 -0.000000 0.000000 0.000000 -0.000000 0.000000 0.000000 0.000000 0.000000 0.000000 -0.000000 0.000000 0.000000 0.441080 1.098444 -0.047992 -1.262206 -3.308575 0.111976 7.104007 18.671031 0.474782 0.000000 0.000000 0.000000 0.000000 0.000000 0.000000 -0.878662 0.074778 0.086594 2.013232 -0.524396 -0.387977 0.538436 -0.097965 0.359290 -2.507211 1.039642 0.001121 0.000000 0.000000 0.000000 0.000000 0.000000 0.000000 -0.072123 -0.061521 -29.131330 -0.000000 0.000000 0.000000 1.376817 -3.573854 1.099775 0.000000 0.000000 0.000000 -0.072123 -0.061521 -29.131330 -0.000000 0.000000 0.000000 3.213991 -1.625807 -3.831760 0.000000 0.000000 0.000000
24.515444 70.596711 341.898097 0.067116 0.168807 28.888810 -0.140317 -0.115376 -28.889050 -0.000000 0.000000 0.000000 -0.000000 0.000000 0.000000 0.000000 0.000000 0.000000 0.252894 -1.116515 0.078607 0.495850 2.882909 -0.172136 -2.355346 -5.963213 0.160479 14.325585 35.026119 -1.379946 0.000000 0.000000 0.000000 0.000000 0.000000 0.000000 -1.423794 0.085693 0.129845 3.368023 -0.860035 -0.640972 0.893858 -0.094056 0.601592 -4.241990 1.709218 0.032710 0.000000 0.000000 0.000000 0.000000 0.000000 0.000000 -0.140317 -0.115376 -28.889050 -0.000000 0.000000 0.000000 2.658423 -6.709727 2.143712 0.000000 0.000000 0.000000 -0.140317 -0.115376 -28.889050 -0.000000 0.000000 0.000000 5.925770 -3.289241 -6.962492 0.000000 0.000000 0.000000
24.507395 70.550963 341.865778 0.102216 0.239948 28.667806 -0.204797 -0.161498 -28.668309 -0.000000 0.000000 0.000000 -0.000000 0.000000 0.000000 0.000000 0.000000 0.000000 0.370367 -1.332273 0.103150 0.576974 3.424817 -0.222849 -3.298517 -8.000553 0.175337 21.518493 46.949166 -5.064739 0.000000 0.000000 0.000000 0.000000 0.000000 0.000000 -1.643627 0.034631 0.129642 4.068165 -0.997973 -0.767482 1.059257 0.005971 0.724049 -5.205597 2.008560 0.069018 0.000000 0.000000 0.000000 0.000000 0.000000 0.000000 -0.204797 -0.161498 -28.668309 -0.000000 0.000000 0.000000 3.740337 -9.216986 3.034941 0.000000 0.000000 0.000000 -0.204797 -0.161498 -28.668309 -0.000000 0.000000 0.000000 8.109160 -4.866008 -9.339092 0.000000 0.000000 0.000000
24.493464 70.511642 341.828275 0.138370 0.302334 28.468460 -0.265755 -0.199817 -28.469288 -0.000000 0.000000 0.000000 0.460364 -0.687645 -0.132625 0.000000 0.000000 0.000000 0.481500 -1.319627 0.116833 0.573982 3.445890 -0.245293 -4.095467 -9.426682 0.180157 28.097471 54.557604 -9.486377 0.000000 0.000000 0.000000 0.000000 0.000000 0.000000 -1.541688 -0.078202 0.086298 4.114603 -0.933288 -0.770810 1.021278 0.203963 0.725781 -5.389535 1.934103 0.098300 0.000000 0.000000 0.000000 0.000000 0.000000 0.000000 -0.265755 -0.199817 -28.469288 -0.000000 0.000000 0.000000 4.520237 -10.946146 3.676447 0.000000 0.000000 0.000000 -0.265755 -0.199817 -28.469288 -0.000000 0.000000 0.000000 9.773662 -6.263394 -10.952293 0.000000 0.000000 0.000000
24.473650 70.478748 341.785587 0.175602 0.356016 28.290900 -0.323362 -0.230262 -28.292096 -0.000000 0.000000 0.000000 0.442342 -0.763352 -0.148711 0.000000 0.000000 0.000000 0.586183 -1.078621 0.118989 0.496911 2.969687 -0.239551 -4.741447 -10.230401 0.194636 32.943013 58.713388 -13.176238 0.000000 0.000000 0.000000 0.000000 0.000000 0.000000 -1.116719 -0.254262 0.000520 3.504921 -0.664701 -0.648681 0.758254 0.510391 0.607647 -4.773962 1.477162 0.123221 0.000000 0.000000 0.000000 0.000000 0.000000 0.000000 -0.323362 -0.230262 -28.292096 -0.000000 0.000000 0.000000 4.917178 -11.799113 3.990533 0.000000 0.000000 0.000000 -0.323362 -0.230262 -28.292096 -0.400566 -0.733723 -0.211665 11.350628 -6.659840 -11.750154 0.000000 0.000000 0.000000
24.450178 70.432075 341.730044 0.224663 0.399676 28.070918 -0.386312 -0.246938 -28.072535 -0.000000 0.000000 0.000000 0.350775 -0.783592 -0.155352 0.000000 0.000000 0.000000 1.010202 0.528229 0.091360 -0.147230 -0.072583 -0.153044 -5.951448 -10.666616 0.304428 37.984102 61.880840 -17.278843 0.000000 0.000000 0.000000 0.000000 0.000000 0.000000 -0.767853 -0.488773 -0.096786 3.092307 -0.287675 -0.555787 -0.050054 1.401696 0.414844 -3.310007 -0.036166 0.221394 0.000000 0.000000 0.000000 0.000000 0.000000 0.000000 0.370323 -0.722297 -27.829003 -0.891019 0.067111 -0.236610 5.159706 -12.317123 4.201842 0.000000 0.000000 0.000000 0.091680 0.858273 -27.702644 -0.265940 -3.120371 -0.789605 8.385310 -3.143015 -8.578442 0.000000 0.000000 0.000000
24.425046 70.415243 341.656971 0.268925 0.425575 27.987356 -0.437190 -0.249598 -27.989307 -0.000000 0.000000 0.000000 -0.000000 0.000000 0.000000 0.000000 0.000000 0.000000 1.071022 1.107621 0.068566 -1.072546 -1.106144 -0.089273 -5.231160 -10.331566 0.298316 34.850810 60.516817 -15.157440 0.000000 0.000000 0.000000 0.000000 0.000000 0.000000 -0.000000 0.000000 0.000000 1.970406 -0.491152 -0.547199 -1.518114 2.702793 0.098194 -0.013611 -0.966173 0.395539 0.000000 0.000000 0.000000 0.000000 0.000000 0.000000 0.437856 -0.840128 -27.707636 -1.535972 -0.544120 -0.526386 5.438310 -11.112311 4.169819 0.000000 0.000000 0.000000 0.239198 1.355108 -27.459000 -0.183396 -4.140485 -1.031547 6.187182 0.088352 -8.316847 0.000000 0.000000 0.000000
24.386952 70.408471 341.593378 0.288423 0.443607 27.939911 -0.462658 -0.256753 -27.942064 -0.000000 0.000000 0.000000 -0.000000 0.000000 0.000000 0.000000 0.000000 0.000000 0.266225 -1.110452 0.080026 1.152669 2.677812 -0.228898 -6.049914 -9.148398 0.382726 27.875804 55.346709 -9.731791 0.000000 0.000000 0.000000 0.000000 0.000000 0.000000 1.728349 -1.057837 -0.427785 -1.736487 1.044422 0.459571 -2.204340 3.386197 -0.522890 2.940370 -2.255565 0.617439 0.000000 0.000000 0.000000 0.000000 0.000000 0.000000 0.372214 -0.949656 -27.674406 -1.495109 -0.428818 -0.496656 4.681694 -9.590577 3.540684 0.000000 0.000000 0.000000 -0.119875 0.931848 -27.589231 -0.164464 -3.079969 -0.774535 10.607238 -6.125783 -8.346463 0.000000 0.000000 0.000000
24.328529 70.400150 341.567348 0.302910 0.453582 27.768581 -0.479355 -0.260211 -27.770869 -0.000000 0.000000 0.000000 -0.000000 0.000000 0.000000 0.000000 0.000000 0.000000 -0.134834 -1.255958 0.035235 1.799606 3.436597 -0.237888 -7.168670 -11.283515 0.312553 22.887223 48.637958 -6.571766 0.000000 0.000000 0.000000 0.000000 0.000000 0.000000 4.540635 -1.675848 -0.760482 -6.841448 2.152029 1.600786 -1.961322 4.780701 -1.366574 4.236798 -6.461598 1.127280 0.000000 0.000000 0.000000 0.000000 0.000000 0.000000 0.240781 -1.037175 -27.542599 -0.997792 0.355833 -0.217018 1.859444 -4.472489 0.771004 0.000000 0.000000 0.000000 -0.370386 0.571205 -27.557831 -0.239227 -2.352990 -0.604616 15.285077 -11.429288 -10.318834 0.000000 0.000000 0.000000
24.263880 70.419309 341.556905 0.325572 0.490899 27.640180 -0.516159 -0.283828 -27.642853 -0.000000 0.000000 0.000000 -0.000000 0.000000 0.000000 0.000000 0.000000 0.000000 -0.000000 0.000000 0.000000 1.439020 -0.255892 -0.074444 -4.776444 -5.053467 0.472085 17.835496 43.520924 -3.624899 0.000000 0.000000 0.000000 0.000000 0.000000 0.000000 8.102022 -2.356607 -1.109526 -13.606490 3.543273 3.203759 -2.482295 3.215231 -1.956165 6.671816 -6.805930 0.967098 0.000000 0.000000 0.000000 0.000000 0.000000 0.000000 0.042390 -1.089595 -27.468894 -0.867264 0.457229 -0.163804 2.144830 -5.407220 1.553921 0.000000 0.000000 0.000000 -0.516159 -0.283828 -27.642853 -0.487887 -0.789039 -0.239745 19.681669 -17.549567 -10.630755 0.000000 0.000000 0.000000
24.191285 70.451691 341.553773 0.339607 0.547505 27.472763 -0.553897 -0.329080 -27.475977 -0.000000 0.000000 0.000000 -0.000000 0.000000 0.000000 0.000000 0.000000 0.000000 -0.665871 -2.076122 -0.003040 1.607242 -0.570944 -0.042196 -5.133256 -0.714078 0.862251 14.597793 34.498535 -1.810939 0.000000 0.000000 0.000000 0.000000 0.000000 0.000000 12.073048 -2.908039 -1.403567 -20.948589 4.434069 4.939992 -4.851107 -0.834666 -2.409129 12.129019 -2.704021 -0.005216 0.000000 0.000000 0.000000 0.000000 0.000000 0.000000 -0.190365 -1.153497 -27.367629 -0.701847 0.564997 -0.100184 1.723967 -4.538582 1.610958 0.000000 0.000000 0.000000 -0.221626 0.637009 -27.172568 -0.073888 -2.230567 -0.565388 17.052017 -14.806279 -9.003107 0.000000 0.000000 0.000000
24.113582 70.479822 341.587905 0.348894 0.565074 27.251879 -0.568925 -0.342578 -27.255300 -0.000000 0.000000 0.000000 -0.000000 0.000000 0.000000 0.000000 0.000000 0.000000 -0.607126 -2.772134 0.030211 1.256131 0.405186 -0.074381 -0.984355 4.751755 0.166472 10.758054 28.621273 0.325411 0.000000 0.000000 0.000000 0.000000 0.000000 0.000000 16.529671 -3.381670 -1.661626 -28.805574 4.738482 6.731636 -10.511480 -3.102127 -3.322150 21.672440 -1.691563 -1.041397 0.000000 0.000000 0.000000 0.000000 0.000000 0.000000 -0.342841 -1.151717 -27.193556 -0.570891 0.616365 -0.055726 4.279982 -10.577686 4.059794 0.000000 0.000000 0.000000 -0.568925 -0.342578 -27.255300 -0.048768 -0.847849 -0.158416 13.222702 -8.773393 -13.676059 0.000000 0.000000 0.000000
24.049728 70.509650 341.643486 0.389262 0.594895 26.928414 -0.616479 -0.354086 -26.932340 -0.000000 0.000000 0.000000 0.066531 -0.796629 -0.165745 0.000000 0.000000 0.000000 -0.286699 -3.083814 0.087465 0.291826 3.083333 -0.103036 5.629639 5.589299 -1.244255 5.723862 27.567273 1.865224 0.000000 0.000000 0.000000 0.000000 0.000000 0.000000 20.809271 -3.618274 -1.846968 -36.220306 4.678595 8.269781 -16.038227 -8.284632 -4.771656 27.821671 3.468059 -3.458027 0.000000 0.000000 0.000000 0.000000 0.000000 0.000000 -0.616479 -0.354086 -26.932340 -0.000000 0.000000 0.000000 5.062367 -12.263883 4.785300 0.000000 0.000000 0.000000 -0.616479 -0.354086 -26.932340 0.326858 -1.183487 -0.137566 5.147604 0.914580 -11.034701 0.000000 0.000000 0.000000
